<svg id="Livello_1" data-name="Livello 1" xmlns="http://www.w3.org/2000/svg" viewBox="0 0 822.9 116.27">
  <defs>
    <style>
      .cls-1 {
        fill: #ff9800;
      }

      .cls-2 {
        fill: #03a9f4;
      }

      .cls-3 {
        fill: #f44336;
      }
    </style>
  </defs>
  <title>simplepatch</title>
  <g>
    <g>
      <rect class="cls-1" y="67.05" width="121.14" height="25" rx="12.5" ry="12.5"/>
      <rect class="cls-1" x="1" y="5.05" width="121.14" height="25" rx="12.5" ry="12.5"/>
      <g>
        <path class="cls-2" d="M202.17,86.1l-13-7.49a5,5,0,0,0-7.48,4.32v15a5,5,0,0,0,7.48,4.32l13-7.49A5,5,0,0,0,202.17,86.1Z" transform="translate(-83.55 -41.87)"/>
        <path class="cls-2" d="M187,102.92H142a12.54,12.54,0,0,1-12.5-12.5h0A12.54,12.54,0,0,1,142,77.92h45" transform="translate(-83.55 -41.87)"/>
      </g>
      <g>
        <path class="cls-3" d="M156.17,86.1l-13-7.49a5,5,0,0,0-7.48,4.32v15a5,5,0,0,0,7.48,4.32l13-7.49A5,5,0,0,0,156.17,86.1Z" transform="translate(-83.55 -41.87)"/>
        <path class="cls-3" d="M141,102.92H96a12.54,12.54,0,0,1-12.5-12.5h0A12.54,12.54,0,0,1,96,77.92h45" transform="translate(-83.55 -41.87)"/>
      </g>
    </g>
    <g>
      <path d="M310.59,112.57a16.38,16.38,0,0,0-2.59-9.38,21.92,21.92,0,0,0-8.16-6.79q-5.57-2.95-16.83-6T266.13,84.1a22.32,22.32,0,0,1-8.25-7.33,18.64,18.64,0,0,1-2.62-10.13q0-9.47,8-15.34T284,45.44a33.68,33.68,0,0,1,15,3.25,24.34,24.34,0,0,1,10.27,9.11,24.67,24.67,0,0,1,3.63,13.25H309.7A20.53,20.53,0,0,0,302.55,55Q295.4,48.66,284,48.66t-18.49,5.09q-7.06,5.09-7.06,12.78a15.14,15.14,0,0,0,6.14,12.57q6.13,4.77,20.25,8.43T305.53,96a19.39,19.39,0,0,1,8.34,16.44A19.08,19.08,0,0,1,310.17,124a23.52,23.52,0,0,1-10.48,7.77,40.44,40.44,0,0,1-15.25,2.74,43.63,43.63,0,0,1-16.92-3.13,24.07,24.07,0,0,1-11.29-8.91,24.33,24.33,0,0,1-3.78-13.64h3.22q0,10.66,8,16.56t20.79,5.9q11.38,0,18.76-5.21T310.59,112.57Z" transform="translate(-83.55 -41.87)"/>
      <path d="M328.22,48.78a3.26,3.26,0,0,1,1-2.35,3.11,3.11,0,0,1,2.32-1,3.36,3.36,0,0,1,3.34,3.34,3.11,3.11,0,0,1-1,2.32,3.26,3.26,0,0,1-2.35,1,3.25,3.25,0,0,1-3.28-3.28Zm4.88,84.58h-3.22V68.91h3.22Z" transform="translate(-83.55 -41.87)"/>
      <path d="M400.35,133.35h-3.22V90.09q-.06-9.7-4.26-14.43T379.5,70.93q-10.6,0-17.33,9.34a31.27,31.27,0,0,0-5.3,12.38v40.7h-3.28V68.91h3.28V84.16A27.24,27.24,0,0,1,366.22,72a22.82,22.82,0,0,1,13.46-4.29q8.1,0,13.25,3.57T399.69,83A23.59,23.59,0,0,1,409,71.86a26.07,26.07,0,0,1,14.41-4.14q10.42,0,15.52,5.9t5.15,17.69v42.05h-3.22V91.58q0-10.59-4.26-15.68t-13.37-5a22.44,22.44,0,0,0-18.58,9.34q-3.93,5.3-4.29,10.24Z" transform="translate(-83.55 -41.87)"/>
      <path d="M512.86,101.73q0,15.07-6.49,23.94a20.76,20.76,0,0,1-17.69,8.88,27.83,27.83,0,0,1-13-3,22.35,22.35,0,0,1-8.93-8.22v34.79h-3.22V68.91h3.22V80.4a23.64,23.64,0,0,1,9-9.41,25.21,25.21,0,0,1,12.87-3.28q11.32,0,17.81,8.67t6.49,24.33Zm-3.28-1.25q0-13.88-5.51-21.71t-15.46-7.83a22.44,22.44,0,0,0-13.76,4.2,23.26,23.26,0,0,0-8.16,12.06v30.14a20.45,20.45,0,0,0,8.19,10.33,25,25,0,0,0,13.85,3.66,17.66,17.66,0,0,0,15.37-7.86Q509.59,115.61,509.59,100.48Z" transform="translate(-83.55 -41.87)"/>
      <path d="M534.37,133.35h-3.22V41.87h3.22Z" transform="translate(-83.55 -41.87)"/>
      <path d="M578.68,134.55a25.92,25.92,0,0,1-14.33-4.2,28.82,28.82,0,0,1-10.21-11.53,35.6,35.6,0,0,1-3.69-16.26V99.88A37.35,37.35,0,0,1,554,83.5a28.32,28.32,0,0,1,9.83-11.62,24.1,24.1,0,0,1,13.64-4.17,22.54,22.54,0,0,1,17.63,7.68Q602,83.08,602,95.59V99h-48.3v3.51A32.35,32.35,0,0,0,557,117a26,26,0,0,0,9.11,10.49,22.54,22.54,0,0,0,12.6,3.8,25.64,25.64,0,0,0,11-2.16,22.48,22.48,0,0,0,8.07-6.66l2.26,1.61Q592.85,134.55,578.68,134.55Zm-1.19-63.61a21,21,0,0,0-16,7q-6.55,7-7.68,17.84h44.91V95A27.21,27.21,0,0,0,596,82.82a21.36,21.36,0,0,0-7.62-8.76A19.65,19.65,0,0,0,577.49,70.93Z" transform="translate(-83.55 -41.87)"/>
      <path d="M625,98v35.32h-7.33V46.63h29.54q13.52,0,21.35,6.91t7.83,19q0,12.21-7.54,18.85T647.06,98Zm0-6.19h22.22q10.66,0,16.26-5.07t5.6-14.14q0-9-5.57-14.35t-15.81-5.46H625Z" transform="translate(-83.55 -41.87)"/>
      <path d="M731.16,133.35a33.69,33.69,0,0,1-1.37-9,24.85,24.85,0,0,1-9.56,7.54,29.3,29.3,0,0,1-12.3,2.65q-9.29,0-15-5.18a16.88,16.88,0,0,1-5.75-13.1A17.25,17.25,0,0,1,695,101.37q7.83-5.48,21.83-5.48h12.93V88.56q0-6.91-4.26-10.87t-12.42-4q-7.45,0-12.33,3.81t-4.88,9.17l-7.15-.06q0-7.68,7.15-13.31t17.57-5.63q10.78,0,17,5.39t6.4,15v30.5q0,9.35,2,14v.71Zm-22.4-5.12a23.92,23.92,0,0,0,12.78-3.46,20.32,20.32,0,0,0,8.19-9.23V101.37H717q-10.66.12-16.68,3.9t-6,10.39a11.52,11.52,0,0,0,4,9A15.15,15.15,0,0,0,708.76,128.23Z" transform="translate(-83.55 -41.87)"/>
      <path d="M766.9,52.41v16.5h13.34v5.84H766.9v43q0,5.37,1.94,8t6.46,2.62a44.27,44.27,0,0,0,5.78-.6l.3,5.79a23.32,23.32,0,0,1-7.62,1q-7.33,0-10.66-4.26t-3.34-12.54v-43H747.9V68.91h11.85V52.41Z" transform="translate(-83.55 -41.87)"/>
      <path d="M818.84,128.53a18.82,18.82,0,0,0,12.48-4.2,14.78,14.78,0,0,0,5.45-10.87h6.85a20.18,20.18,0,0,1-3.69,10.75,23.13,23.13,0,0,1-9,7.59,27.2,27.2,0,0,1-12.06,2.74q-12.69,0-20.1-8.82T791.32,102V99.88A40.27,40.27,0,0,1,794.65,83a25.71,25.71,0,0,1,9.56-11.32,26.39,26.39,0,0,1,14.56-4q10.6,0,17.48,6.31t7.36,16.62h-6.85a17.25,17.25,0,0,0-18-16.86q-9.65,0-15,7t-5.33,19.54v2.08q0,12.33,5.33,19.24T818.84,128.53Z" transform="translate(-83.55 -41.87)"/>
      <path d="M864.94,79.81a25.16,25.16,0,0,1,9-8.93,23.56,23.56,0,0,1,12-3.16q10.36,0,15.43,5.84t5.12,17.51v42.29h-7.09V91q-.06-8.64-3.66-12.87t-11.53-4.23a18,18,0,0,0-11.7,4.14,24.25,24.25,0,0,0-7.53,11.17v44.14h-7.09V41.87h7.09Z" transform="translate(-83.55 -41.87)"/>
    </g>
  </g>
</svg>
